 <!DOCTYPE svg PUBLIC "-//W3C//DTD SVG 1.1//EN" "http://www.w3.org/Graphics/SVG/1.1/DTD/svg11.dtd">
<svg id="e5e729b8-2a03-4109-8f33-06af900175fa" data-name="Layer 1" xmlns="http://www.w3.org/2000/svg" width="865.76" height="682.89" viewBox="0 0 865.76 682.89">
<defs/>
<rect x="314.69" y="23.48" width="302.14" height="577.71" rx="21.21" fill="#2f2e41" data-secondary="true"/>
<rect x="328.84" y="38.48" width="274.29" height="547.71" rx="21.21" fill="#e4e4e4"/>
<path d="M493.12,161.62c0-38.49-27.14-36-27.14-36-28.29,2.86-25.7,36-25.7,36s-.3,16.31-6.59,27.58l-5.14,11.85h77.72L500,189.2S493.12,178.77,493.12,161.62Z" fill="#2f2e41" data-secondary="true"/>
<circle cx="491.12" cy="133.91" r="15.14" fill="#fff"/>
<path d="M232.49,206.11s-1.65,12.08-11.65,12.66c0,0,1,21.14,20.36,24,0,0,21.64,4,25.07-23.43,0,0-10.85,1-13.71-13.23a13,13,0,0,1-20.07,0Z" fill="#f9b499"/>
<path d="M286.19,216.8c-31.72,11.61-33.63-10.69-33.63-10.69,10.29-9.16,9-29.63,9-29.63-16.93,3-22.66-4.13-22.66-4.13-6.58-9.48-9.87-2.6-9.87-2.6-3.59,7-8.18,1.16-8.18,1.16,3.21,29.14,11.65,35.2,11.65,35.2-4,20.41-26.16,11.77-26.16,11.77l1.51-3.63a34.31,34.31,0,0,0-3.29-30.06s-6-14.57,10.29-22.28c0,0,10.28-34.29,46.28-17.14,0,0,18,11.48,12,35.74,0,0-2.92,18.13,3,24.61a39.23,39.23,0,0,1,4,5.53C281.87,213.26,284.15,216.24,286.19,216.8Z" fill="#2f2e41" data-secondary="true"/>
<polygon points="141.23 596.63 163.68 602.8 151.34 627.22 134.86 624.08 141.23 596.63" fill="#f9b499"/>
<polygon points="247.76 605.44 270.99 603.86 267.39 630.99 250.79 633.46 247.76 605.44" fill="#f9b499"/>
<path d="M152.19,656.76l-9.69-1.65-.17-9.45-6,8.39-25.7-4.39a5.86,5.86,0,0,1-1.48-11.09l22.94-10.66,1.58-9.25,21.37,5Z" fill="#d200f2" data-primary="true"/>
<path d="M138.84,601.05l26.28,6.86,83.42-208-3.42,212.57h26.29s43.91-212.79,20.24-246.68l-98.53,9.54c-5.13,31.42-11.51,64.45-19.43,98.85C163.2,519.78,151.31,562.13,138.84,601.05Z" fill="#2f2e41" data-secondary="true"/>
<path d="M271.87,659.41l-9.83-.12L260.4,650l-4.61,9.22-26.07-.32a5.86,5.86,0,0,1-3.19-10.73l21-14.11.12-9.38,21.88,1.58Z" fill="#d200f2" data-primary="true"/>
<path d="M270.88,303s23.78-4.67,27.78-34.89l-12.47-9-13.44,25.55Z" fill="#2f2e41" data-secondary="true"/>
<path d="M413.44,229.23c-3.78-7.31-14.41.87-14.41.87l-10.44,7c-.38.32-1.14,1-2.06,1.87l-.26-.2-45.15,35.14-24.57-23.14L298.66,268.1,337,297.23a13.17,13.17,0,0,0,17.74-1.67l39.54-43.88c3.4-1,15.23-4.57,18.26-6.9C416.1,242.06,417.22,236.55,413.44,229.23Z" fill="#f9b499"/>
<path d="M266.27,219.86C263.05,245.25,242.91,243,242.91,243c-21.43-2.19-22.07-23.73-22.07-23.73a28.89,28.89,0,0,1-14.56-1.46c-35.24,17.08-33.16,55.27-33.16,55.27s22.29-.57,24,18.29a41.49,41.49,0,0,1,0,30.28c0,26.22-5.92,43.18-8.23,48.8a8.34,8.34,0,0,0,.18,7c5.7,10.83,31.77,1.32,31.77,1.32,28.28-13.15,53.43-8,53.43-8,23.6,3.2,18.36-10.12,13.09-18.4a81.33,81.33,0,0,1-9.82-21.47c-12.77-45.41,8.65-66.42,8.65-66.42l15.5,12.57,22.29-24c-13.07-19.88-27.4-30.42-38.52-36C285.46,217.06,273.77,221.57,266.27,219.86Z" fill="#d200f2" data-primary="true"/>
<path d="M490.16,129.15h0L488,130.27l-.31-1.23,2.61-1.4h1.38v12h-1.56Z"/>
<path d="M240.05,271.44c-3.77-7.31-14.41.87-14.41.87l-10.44,7c-1.14,1-5.84,5.42-7.95,7.42l-12.85,9.43V282.85c-5.85-8.94-18.83-9.7-18.83-9.7s-5.64,48.93,12.85,48.13a10.38,10.38,0,0,0,7-3.31c3.72-3.88,11.95-12.49,18.7-19.56l5.89-4.26s15.64-4.43,19.18-7.16S243.83,278.75,240.05,271.44Z" fill="#f9b499"/>
<path d="M718.46,595.51l-1.61.19c-.1-.81-9.83-82.29,10.25-148.87,20-66.18,6.22-108.35,6.08-108.77l1.53-.51c.14.42,14,43.08-6.06,109.74C708.67,513.55,718.36,594.69,718.46,595.51Z" fill="#e1e1e1"/>
<path d="M736,347.14a25.19,25.19,0,0,0-13.53-8.34l.37-1.58a26.88,26.88,0,0,1,14.4,8.88Z" fill="#e1e1e1"/>
<rect x="738.34" y="355.11" width="5.31" height="1.62" transform="translate(-79.22 410.59) rotate(-29.47)" fill="#e1e1e1"/>
<path d="M734.3,391.44a38.41,38.41,0,0,0-20.79-20.17l.6-1.5a40.06,40.06,0,0,1,21.67,21Z" fill="#e1e1e1"/>
<path d="M730,442.35l-1.62,0a22.2,22.2,0,0,0-8.37-17l1-1.27A23.88,23.88,0,0,1,730,442.35Z" fill="#e1e1e1"/>
<path d="M726.36,455.36l-1.51-.59a16.22,16.22,0,0,1,9.2-9.07l.57,1.51A14.58,14.58,0,0,0,726.36,455.36Z" fill="#e1e1e1"/>
<path d="M715.88,538l-1.24-1c2-2.38,3.45-11.41,4.25-16.26.19-1.16.35-2.15.49-2.87l1.59.31c-.13.7-.29,1.68-.48,2.82C719.29,528.17,718,535.45,715.88,538Z" fill="#e1e1e1"/>
<path d="M715,563.88a15.94,15.94,0,0,0-15.44-10.66l-.07-1.61a17.57,17.57,0,0,1,17,11.77Z" fill="#e1e1e1"/>
<rect x="713.67" y="586.87" width="17.1" height="1.62" transform="translate(-197.23 734.59) rotate(-48.21)" fill="#e1e1e1"/>
<path d="M735.36,497.64c2.58,8.36-15.43,24.27-15.43,24.27s-23.84-3-26.43-11.34,3.46-22,15-25.6S732.78,489.28,735.36,497.64Z" fill="#e1e1e1"/>
<path d="M755.34,396.21c-2.28,8.88-19.34,15.18-19.34,15.18s-11.89-13.75-9.6-22.63,11.71-18.66,19.7-16.6S757.63,387.34,755.34,396.21Z" fill="#e1e1e1"/>
<path d="M686.9,528.85C697.61,533,704.18,552,704.18,552s-17.65,9.51-28.36,5.34-22-15.92-19-23.78S676.19,524.68,686.9,528.85Z" fill="#e1e1e1"/>
<path d="M710.38,424.64c2.27,1.68,4.6,3.4,7.32,4.14s6,.28,7.81-1.85c2.29-2.63,1.68-6.72.23-9.9-2.86-6.31-13.41-17-21.52-13.94C692.52,407.52,705.17,420.77,710.38,424.64Z" fill="#e1e1e1"/>
<path d="M734.34,440.71c-1.54,1.9-3.17,4.3-2.33,6.6.75,2,3.25,3,5.39,2.64a14.18,14.18,0,0,0,5.79-2.83c4.13-2.87,12.6-8.88,7.2-14.51C744.77,426.75,737.57,436.7,734.34,440.71Z" fill="#e1e1e1"/>
<path d="M699.77,360.6a4.26,4.26,0,0,0-3.86,3.13c-.35,2,1.35,3.84,3,5.11,4.1,3.16,16.43,11.69,19.18,3.46C720.69,364.53,705.22,360,699.77,360.6Z" fill="#e1e1e1"/>
<path d="M722.5,333.52c-2.54.24-5.08-.68-7.63-.52s-5.38,2.22-4.81,4.71c.52,2.3,3.38,3.07,5.74,3.22a46.18,46.18,0,0,0,12-.83,3.69,3.69,0,0,0,2.44-1.23c1-1.52-.61-3.56-2.36-4.1s-3.74-.35-5.33-1.27Z" fill="#e1e1e1"/>
<path d="M747.36,351c2.55.07,5-1,7.58-1s5.51,1.86,5.11,4.38c-.37,2.33-3.17,3.29-5.52,3.59a45.86,45.86,0,0,1-12,0,3.66,3.66,0,0,1-2.51-1.07c-1.13-1.45.37-3.59,2.08-4.24s3.71-.6,5.24-1.62Z" fill="#e1e1e1"/>
<path d="M744.84,539.22a3.54,3.54,0,0,1,2.17-1.07,2.45,2.45,0,0,1,2.17,2.11,6.77,6.77,0,0,1-.41,3.23c-1.73,5.79-21.17,47.74-25.64,40.21-2.64-4.45,3.86-19.21,5.77-23.38A61.08,61.08,0,0,1,744.84,539.22Z" fill="#e1e1e1"/>
<path d="M733.22,335.12c1.54-3.47,3.21-7.09,6.27-9.32s8-2.4,10.22.67c2.49,3.42,0,8.63-3.83,10.45s-8.31,1.28-12.5.69c0-.62-.07-1.24-.1-1.87Z" fill="#e1e1e1"/>
<path d="M746.39,650.53h0a135.57,135.57,0,0,1-62.07,0h0l-9.64-71.24H756Z" fill="#e1e1e1"/>
<rect x="357.23" y="324.15" width="221.04" height="13.08" rx="6.54" fill="#fff"/>
<rect x="357.23" y="361.13" width="221.04" height="13.08" rx="6.54" fill="#fff"/>
<rect x="357.23" y="398.12" width="221.04" height="13.08" rx="6.54" fill="#fff"/>
<rect x="357.23" y="435.11" width="221.04" height="13.08" rx="6.54" fill="#fff"/>
<path d="M230.22,212.56l2.27-6.45s9.3,9.1,20.07,0C252.56,206.11,248.12,218.69,230.22,212.56Z" fill="#f4a48e"/>
<path d="M220.84,170.91s3,42.43,23.57,39.86c0,0,17.57-2.58,17.14-34.29,0,0-17.33,4.33-24.81-6.64a5,5,0,0,0-4.31-2.3c-1.5.06-3.09.81-3.88,3.37C228.55,170.91,224.84,175.91,220.84,170.91Z" fill="#f9b499"/>
</svg>